<svg width="20" height="19" viewBox="0 0 20 19" fill="none" xmlns="http://www.w3.org/2000/svg">
<path d="M3.43945 18.0215C1.42773 18.0215 0.353516 16.9668 0.353516 14.9551V3.72461C0.353516 1.72266 1.42773 0.667969 3.43945 0.667969H16.1934C18.2148 0.667969 19.2793 1.72266 19.2793 3.72461V14.9551C19.2793 16.957 18.2148 18.0215 16.1934 18.0215H3.43945ZM3.46875 16.0684H16.1543C16.9062 16.0684 17.3262 15.6777 17.3262 14.8867V6.43945C17.3262 5.64844 16.9062 5.26758 16.1543 5.26758H3.46875C2.7168 5.26758 2.30664 5.64844 2.30664 6.43945V14.8867C2.30664 15.6777 2.7168 16.0684 3.46875 16.0684ZM8.04883 8.41211C7.7168 8.41211 7.60938 8.31445 7.60938 7.98242V7.43555C7.60938 7.11328 7.7168 7.00586 8.04883 7.00586H8.5957C8.92773 7.00586 9.03516 7.11328 9.03516 7.43555V7.98242C9.03516 8.31445 8.92773 8.41211 8.5957 8.41211H8.04883ZM11.0566 8.41211C10.7148 8.41211 10.6074 8.31445 10.6074 7.98242V7.43555C10.6074 7.11328 10.7148 7.00586 11.0566 7.00586H11.5938C11.9258 7.00586 12.043 7.11328 12.043 7.43555V7.98242C12.043 8.31445 11.9258 8.41211 11.5938 8.41211H11.0566ZM14.0547 8.41211C13.7227 8.41211 13.6055 8.31445 13.6055 7.98242V7.43555C13.6055 7.11328 13.7227 7.00586 14.0547 7.00586H14.5918C14.9238 7.00586 15.041 7.11328 15.041 7.43555V7.98242C15.041 8.31445 14.9238 8.41211 14.5918 8.41211H14.0547ZM5.05078 11.3711C4.71875 11.3711 4.60156 11.2637 4.60156 10.9316V10.3945C4.60156 10.0625 4.71875 9.95508 5.05078 9.95508H5.59766C5.92969 9.95508 6.03711 10.0625 6.03711 10.3945V10.9316C6.03711 11.2637 5.92969 11.3711 5.59766 11.3711H5.05078ZM8.04883 11.3711C7.7168 11.3711 7.60938 11.2637 7.60938 10.9316V10.3945C7.60938 10.0625 7.7168 9.95508 8.04883 9.95508H8.5957C8.92773 9.95508 9.03516 10.0625 9.03516 10.3945V10.9316C9.03516 11.2637 8.92773 11.3711 8.5957 11.3711H8.04883ZM11.0566 11.3711C10.7148 11.3711 10.6074 11.2637 10.6074 10.9316V10.3945C10.6074 10.0625 10.7148 9.95508 11.0566 9.95508H11.5938C11.9258 9.95508 12.043 10.0625 12.043 10.3945V10.9316C12.043 11.2637 11.9258 11.3711 11.5938 11.3711H11.0566ZM14.0547 11.3711C13.7227 11.3711 13.6055 11.2637 13.6055 10.9316V10.3945C13.6055 10.0625 13.7227 9.95508 14.0547 9.95508H14.5918C14.9238 9.95508 15.041 10.0625 15.041 10.3945V10.9316C15.041 11.2637 14.9238 11.3711 14.5918 11.3711H14.0547ZM5.05078 14.3203C4.71875 14.3203 4.60156 14.2227 4.60156 13.8906V13.3438C4.60156 13.0117 4.71875 12.9141 5.05078 12.9141H5.59766C5.92969 12.9141 6.03711 13.0117 6.03711 13.3438V13.8906C6.03711 14.2227 5.92969 14.3203 5.59766 14.3203H5.05078ZM8.04883 14.3203C7.7168 14.3203 7.60938 14.2227 7.60938 13.8906V13.3438C7.60938 13.0117 7.7168 12.9141 8.04883 12.9141H8.5957C8.92773 12.9141 9.03516 13.0117 9.03516 13.3438V13.8906C9.03516 14.2227 8.92773 14.3203 8.5957 14.3203H8.04883ZM11.0566 14.3203C10.7148 14.3203 10.6074 14.2227 10.6074 13.8906V13.3438C10.6074 13.0117 10.7148 12.9141 11.0566 12.9141H11.5938C11.9258 12.9141 12.043 13.0117 12.043 13.3438V13.8906C12.043 14.2227 11.9258 14.3203 11.5938 14.3203H11.0566Z" fill="#59636D"/>
</svg>
