<svg width="20" height="20" viewBox="0 0 20 20" fill="none" xmlns="http://www.w3.org/2000/svg">
<path d="M10.25 19.9297C4.99609 19.9297 0.650391 15.584 0.650391 10.3301C0.650391 5.07617 4.98633 0.740234 10.2402 0.740234C15.4941 0.740234 19.8496 5.07617 19.8496 10.3301C19.8496 15.584 15.5039 19.9297 10.25 19.9297ZM5.65039 11.541H10.2402C10.6797 11.541 11.0215 11.209 11.0215 10.7695V4.79297C11.0215 4.36328 10.6797 4.02148 10.2402 4.02148C9.81055 4.02148 9.46875 4.36328 9.46875 4.79297V9.99805H5.65039C5.21094 9.99805 4.87891 10.3398 4.87891 10.7695C4.87891 11.209 5.21094 11.541 5.65039 11.541Z" fill="#59636D"/>
</svg>
