<svg width="19" height="19" viewBox="0 0 19 19" fill="none" xmlns="http://www.w3.org/2000/svg">
<path d="M1.79688 7.89062C1.79688 4.45312 4.59375 1.65625 8.03125 1.65625C11.4688 1.65625 14.2656 4.45312 14.2656 7.89062C14.2656 9.3125 13.7891 10.6172 12.9844 11.6641L16.8047 15.5078C16.9688 15.6719 17.0625 15.8984 17.0625 16.1484C17.0625 16.6719 16.6953 17.0703 16.1641 17.0703C15.9141 17.0703 15.6797 16.9844 15.5 16.8047L11.6562 12.9531C10.6328 13.6875 9.39062 14.125 8.03125 14.125C4.59375 14.125 1.79688 11.3281 1.79688 7.89062ZM3.13281 7.89062C3.13281 10.5938 5.32812 12.7891 8.03125 12.7891C10.7344 12.7891 12.9297 10.5938 12.9297 7.89062C12.9297 5.1875 10.7344 2.99219 8.03125 2.99219C5.32812 2.99219 3.13281 5.1875 3.13281 7.89062Z" fill="#F6F8FA"/>
</svg>
