<svg width="24" height="20" viewBox="0 0 24 20" fill="none" xmlns="http://www.w3.org/2000/svg">
<path d="M12.9062 19.8027C5.5918 19.8027 0.650391 16.0332 0.650391 10.3984C0.650391 4.64648 5.85547 0.710938 13.5898 0.710938C19.5566 0.710938 23.5703 3.26953 23.5703 7.15625C23.5703 11.0625 18.248 11.2969 18.248 12.791C18.248 13.875 19.7715 14.2656 19.7715 16.1504C19.7715 18.3379 17.0176 19.8027 12.9062 19.8027ZM13.873 6.72656C14.7422 6.72656 15.4453 6.02344 15.4453 5.14453C15.4453 4.26562 14.7422 3.57227 13.873 3.57227C13.0039 3.57227 12.2812 4.27539 12.2812 5.14453C12.2812 6.02344 13.0039 6.72656 13.873 6.72656ZM8.79492 8.24023C9.86914 8.24023 10.748 7.38086 10.748 6.28711C10.748 5.21289 9.86914 4.36328 8.79492 4.36328C7.71094 4.36328 6.83203 5.21289 6.83203 6.28711C6.83203 7.38086 7.71094 8.24023 8.79492 8.24023ZM18.4043 7.51758C19.1074 7.51758 19.6738 6.93164 19.6738 6.22852C19.6738 5.55469 19.1074 4.94922 18.4043 4.94922C17.6816 4.94922 17.1055 5.52539 17.1055 6.22852C17.1055 6.95117 17.6816 7.51758 18.4043 7.51758ZM5.12305 11.5996C5.98242 11.5996 6.67578 10.8867 6.67578 10.0273C6.67578 9.1582 5.98242 8.46484 5.12305 8.46484C4.2832 8.46484 3.55078 9.17773 3.55078 10.0273C3.55078 10.8867 4.25391 11.5996 5.12305 11.5996ZM12.7891 16.1895C14.2832 16.1895 15.4258 15.0371 15.4258 13.5527C15.4258 12.1074 14.2441 10.9258 12.7891 10.9258C11.3438 10.9258 10.1621 12.1074 10.1621 13.5527C10.1621 15.0078 11.3438 16.1895 12.7891 16.1895Z" fill="#59636D"/>
</svg>
