<svg width="24" height="25" viewBox="0 0 24 25" fill="none" xmlns="http://www.w3.org/2000/svg">
<path d="M8.61648 20.1449C7.55114 20.1449 6.87642 19.5199 6.8267 18.4545L6.37216 8.80966H5.66193C5.31392 8.80966 5.02983 8.53977 5.02983 8.18466C5.02983 7.82954 5.31392 7.55966 5.66193 7.55966H8.60938V6.55824C8.60938 5.5071 9.27699 4.89631 10.4205 4.89631H12.9773C14.1207 4.89631 14.7884 5.5071 14.7884 6.55824V7.55966H17.75C18.1051 7.55966 18.3821 7.82954 18.3821 8.18466C18.3821 8.53977 18.1051 8.80966 17.75 8.80966H17.0327L16.5852 18.4545C16.5284 19.5128 15.8537 20.1449 14.7955 20.1449H8.61648ZM9.9233 6.62216V7.55966H13.4744V6.62216C13.4744 6.28835 13.2401 6.07528 12.8849 6.07528H10.5128C10.1577 6.07528 9.9233 6.28835 9.9233 6.62216ZM9.63921 18.0426C9.9446 18.0426 10.1506 17.8509 10.1364 17.5526L9.9304 10.2869C9.91619 9.99574 9.71023 9.81108 9.41903 9.81108C9.11364 9.81108 8.91477 9.99574 8.92188 10.294L9.12784 17.5597C9.14205 17.858 9.34091 18.0426 9.63921 18.0426ZM11.706 18.0426C12.0043 18.0426 12.2173 17.8509 12.2173 17.5597V10.294C12.2173 9.99574 12.0043 9.81108 11.706 9.81108C11.4006 9.81108 11.1946 9.99574 11.1946 10.294V17.5597C11.1946 17.8509 11.4006 18.0426 11.706 18.0426ZM13.7727 18.0426C14.071 18.0426 14.2628 17.858 14.277 17.5597L14.483 10.294C14.4972 10.0028 14.2983 9.81108 13.9858 9.81108C13.6946 9.81108 13.4886 9.99574 13.4815 10.294L13.2685 17.5526C13.2614 17.8509 13.4602 18.0426 13.7727 18.0426Z" fill="#59636D"/>
</svg>
