<svg width="16" height="16" viewBox="0 0 16 16" fill="none" xmlns="http://www.w3.org/2000/svg">
<g clip-path="url(#clip0_218_408)">
<path d="M3.33301 9.52492C2.09877 10.0694 1.33301 10.8281 1.33301 11.6673C1.33301 13.3242 4.31777 14.6673 7.99967 14.6673C11.6815 14.6673 14.6663 13.3242 14.6663 11.6673C14.6663 10.8281 13.9006 10.0694 12.6663 9.52492M11.9997 5.33398C11.9997 8.04312 8.99967 9.33398 7.99967 11.334C6.99967 9.33398 3.99967 8.04312 3.99967 5.33398C3.99967 3.12484 5.79053 1.33398 7.99967 1.33398C10.2088 1.33398 11.9997 3.12484 11.9997 5.33398ZM8.66634 5.33398C8.66634 5.70217 8.36787 6.00065 7.99967 6.00065C7.63147 6.00065 7.33301 5.70217 7.33301 5.33398C7.33301 4.9658 7.63147 4.66732 7.99967 4.66732C8.36787 4.66732 8.66634 4.9658 8.66634 5.33398Z" stroke="#383838" stroke-width="1.33333" stroke-linecap="round" stroke-linejoin="round"/>
</g>
<defs>
<clipPath id="clip0_218_408">
<rect width="16" height="16" fill="white"/>
</clipPath>
</defs>
</svg>
