<svg width="23" height="10" viewBox="0 0 23 10" fill="none" xmlns="http://www.w3.org/2000/svg">
<g clip-path="url(#clip0_1_87)">
<path d="M21.2498 8.74993H17.9165M13.5415 8.95826L15.8537 8.06897C16.0016 8.01209 16.0755 7.98364 16.1447 7.94651C16.2062 7.91351 16.2648 7.87543 16.3199 7.83268C16.3819 7.78455 16.4379 7.72851 16.55 7.61647L21.2498 2.9166C21.7101 2.45636 21.7101 1.71017 21.2498 1.24993C20.7896 0.789698 20.0434 0.789694 19.5832 1.24993L14.8833 5.9498C14.7712 6.06184 14.7152 6.11789 14.6671 6.17993C14.6243 6.23501 14.5863 6.29359 14.5533 6.35505C14.5161 6.42422 14.4877 6.49818 14.4308 6.64609L13.5415 8.95826ZM13.5415 8.95826L14.3991 6.72868C14.4604 6.56914 14.4911 6.48934 14.5437 6.4528C14.5897 6.42089 14.6466 6.4088 14.7016 6.4193C14.7646 6.4313 14.825 6.49176 14.9459 6.61264L15.8872 7.55393C16.008 7.6748 16.0685 7.73522 16.0805 7.79814C16.091 7.85314 16.0789 7.91005 16.047 7.95605C16.0104 8.00868 15.9307 8.03934 15.7711 8.10072L13.5415 8.95826Z" stroke="#5D3C0A" stroke-width="0.833333" stroke-linecap="round" stroke-linejoin="round"/>
</g>
<g clip-path="url(#clip1_1_87)">
<path d="M5.16667 9L5.12496 8.93746C4.83554 8.50333 4.69083 8.28625 4.49963 8.12908C4.33036 7.98996 4.13532 7.88558 3.92567 7.82192C3.68885 7.75 3.42796 7.75 2.90617 7.75H2.33333C1.86662 7.75 1.63327 7.75 1.45501 7.65917C1.2982 7.57929 1.17072 7.45179 1.09083 7.295C1 7.11675 1 6.88337 1 6.41667V2.83333C1 2.36662 1 2.13327 1.09083 1.95501C1.17072 1.7982 1.2982 1.67072 1.45501 1.59083C1.63327 1.5 1.86662 1.5 2.33333 1.5H2.5C3.43342 1.5 3.90013 1.5 4.25665 1.68165C4.57025 1.84145 4.82521 2.09641 4.985 2.41002C5.16667 2.76653 5.16667 3.23325 5.16667 4.16667M5.16667 9V4.16667M5.16667 9L5.20837 8.93746C5.49779 8.50333 5.6425 8.28625 5.83371 8.12908C6.00296 7.98996 6.198 7.88558 6.40767 7.82192C6.64446 7.75 6.90537 7.75 7.42717 7.75H8C8.46671 7.75 8.70008 7.75 8.87833 7.65917C9.03513 7.57929 9.16262 7.45179 9.2425 7.295C9.33333 7.11675 9.33333 6.88337 9.33333 6.41667V2.83333C9.33333 2.36662 9.33333 2.13327 9.2425 1.95501C9.16262 1.7982 9.03513 1.67072 8.87833 1.59083C8.70008 1.5 8.46671 1.5 8 1.5H7.83333C6.89992 1.5 6.43321 1.5 6.07667 1.68165C5.76308 1.84145 5.50812 2.09641 5.34833 2.41002C5.16667 2.76653 5.16667 3.23325 5.16667 4.16667" stroke="#5D3C0A" stroke-width="1.04167" stroke-linecap="round" stroke-linejoin="round"/>
</g>
<defs>
<clipPath id="clip0_1_87">
<rect width="10" height="10" fill="white" transform="translate(12.5)"/>
</clipPath>
<clipPath id="clip1_1_87">
<rect width="10" height="10" fill="white"/>
</clipPath>
</defs>
</svg>
