<svg width="14" height="14" viewBox="0 0 14 14" fill="none" xmlns="http://www.w3.org/2000/svg">
<path d="M7 9.334C7.96652 9.334 8.75 8.55046 8.75 7.584C8.75 6.61747 7.96652 5.83398 7 5.83398C6.03347 5.83398 5.25 6.61747 5.25 7.584C5.25 8.55046 6.03347 9.334 7 9.334Z" stroke="black" stroke-width="1.16667" stroke-linecap="round" stroke-linejoin="round"/>
<path d="M1.75 6.16291C1.75 5.82785 1.75 5.66033 1.79318 5.50605C1.83143 5.36939 1.8943 5.24086 1.97868 5.12677C2.07395 4.99797 2.20618 4.89513 2.47064 4.68943L6.42699 1.61227C6.63192 1.45288 6.73441 1.37318 6.84757 1.34254C6.94738 1.31551 7.05262 1.31551 7.15242 1.34254C7.26559 1.37318 7.36808 1.45288 7.57301 1.61227L11.5294 4.68943C11.7938 4.89513 11.9261 4.99797 12.0213 5.12677C12.1057 5.24086 12.1686 5.36939 12.2068 5.50605C12.25 5.66033 12.25 5.82785 12.25 6.16291V10.3833C12.25 11.0367 12.25 11.3633 12.1228 11.6129C12.011 11.8324 11.8325 12.0109 11.613 12.1228C11.3635 12.2499 11.0367 12.2499 10.3833 12.2499H3.61667C2.96327 12.2499 2.63657 12.2499 2.38701 12.1228C2.16749 12.0109 1.98901 11.8324 1.87716 11.6129C1.75 11.3633 1.75 11.0367 1.75 10.3833V6.16291Z" stroke="black" stroke-width="1.16667" stroke-linecap="round" stroke-linejoin="round"/>
</svg>
